<svg xmlns="https://www.w3.org/2000/svg" style="display:none;">
  <!--!Font Awesome Free v7.1.0 by @fontawesome - https://fontawesome.com License - https://fontawesome.com/license/free Copyright 2025 Fonticons, Inc.-->
       
  <symbol id="cv-icon" viewBox="0 0 640 640">
    <path d="M192 64C156.7 64 128 92.7 128 128L128 512C128 547.3 156.7 576 192 576L448 576C483.3 576 512 547.3 512 512L512 234.5C512 217.5 505.3 201.2 493.3 189.2L386.7 82.7C374.7 70.7 358.5 64 341.5 64L192 64zM453.5 240L360 240C346.7 240 336 229.3 336 216L336 122.5L453.5 240z"/>
  </symbol>

  <symbol id="email-icon" viewBox="0 0 640 640">
    <path d="M112 128C85.5 128 64 149.5 64 176C64 191.1 71.1 205.3 83.2 214.4L291.2 370.4C308.3 383.2 331.7 383.2 348.8 370.4L556.8 214.4C568.9 205.3 576 191.1 576 176C576 149.5 554.5 128 528 128L112 128zM64 260L64 448C64 483.3 92.7 512 128 512L512 512C547.3 512 576 483.3 576 448L576 260L377.6 408.8C343.5 434.4 296.5 434.4 262.4 408.8L64 260z"/>
  </symbol>

  <symbol id="github-icon" viewBox="0 0 640 640">
    <path d="M237.9 461.4C237.9 463.4 235.6 465 232.7 465C229.4 465.3 227.1 463.7 227.1 461.4C227.1 459.4 229.4 457.8 232.3 457.8C235.3 457.5 237.9 459.1 237.9 461.4zM206.8 456.9C206.1 458.9 208.1 461.2 211.1 461.8C213.7 462.8 216.7 461.8 217.3 459.8C217.9 457.8 216 455.5 213 454.6C210.4 453.9 207.5 454.9 206.8 456.9zM251 455.2C248.1 455.9 246.1 457.8 246.4 460.1C246.7 462.1 249.3 463.4 252.3 462.7C255.2 462 257.2 460.1 256.9 458.1C256.6 456.2 253.9 454.9 251 455.2zM316.8 72C178.1 72 72 177.3 72 316C72 426.9 141.8 521.8 241.5 555.2C254.3 557.5 258.8 549.6 258.8 543.1C258.8 536.9 258.5 502.7 258.5 481.7C258.5 481.7 188.5 496.7 173.8 451.9C173.8 451.9 162.4 422.8 146 415.3C146 415.3 123.1 399.6 147.6 399.9C147.6 399.9 172.5 401.9 186.2 425.7C208.1 464.3 244.8 453.2 259.1 446.6C261.4 430.6 267.9 419.5 275.1 412.9C219.2 406.7 162.8 398.6 162.8 302.4C162.8 274.9 170.4 261.1 186.4 243.5C183.8 237 175.3 210.2 189 175.6C209.9 169.1 258 202.6 258 202.6C278 197 299.5 194.1 320.8 194.1C342.1 194.1 363.6 197 383.6 202.6C383.6 202.6 431.7 169 452.6 175.6C466.3 210.3 457.8 237 455.2 243.5C471.2 261.2 481 275 481 302.4C481 398.9 422.1 406.6 366.2 412.9C375.4 420.8 383.2 435.8 383.2 459.3C383.2 493 382.9 534.7 382.9 542.9C382.9 549.4 387.5 557.3 400.2 555C500.2 521.8 568 426.9 568 316C568 177.3 455.5 72 316.8 72zM169.2 416.9C167.9 417.9 168.2 420.2 169.9 422.1C171.5 423.7 173.8 424.4 175.1 423.1C176.4 422.1 176.1 419.8 174.4 417.9C172.8 416.3 170.5 415.6 169.2 416.9zM158.4 408.8C157.7 410.1 158.7 411.7 160.7 412.7C162.3 413.7 164.3 413.4 165 412C165.7 410.7 164.7 409.1 162.7 408.1C160.7 407.5 159.1 407.8 158.4 408.8zM190.8 444.4C189.2 445.7 189.8 448.7 192.1 450.6C194.4 452.9 197.3 453.2 198.6 451.6C199.9 450.3 199.3 447.3 197.3 445.4C195.1 443.1 192.1 442.8 190.8 444.4zM179.4 429.7C177.8 430.7 177.8 433.3 179.4 435.6C181 437.9 183.7 438.9 185 437.9C186.6 436.6 186.6 434 185 431.7C183.6 429.4 181 428.4 179.4 429.7z"/>
  </symbol>

  <symbol id="linkedin-icon" viewBox="0 0 640 640">
    <path d="M512 96L127.9 96C110.3 96 96 110.5 96 128.3L96 511.7C96 529.5 110.3 544 127.9 544L512 544C529.6 544 544 529.5 544 511.7L544 128.3C544 110.5 529.6 96 512 96zM231.4 480L165 480L165 266.2L231.5 266.2L231.5 480L231.4 480zM198.2 160C219.5 160 236.7 177.2 236.7 198.5C236.7 219.8 219.5 237 198.2 237C176.9 237 159.7 219.8 159.7 198.5C159.7 177.2 176.9 160 198.2 160zM480.3 480L413.9 480L413.9 376C413.9 351.2 413.4 319.3 379.4 319.3C344.8 319.3 339.5 346.3 339.5 374.2L339.5 480L273.1 480L273.1 266.2L336.8 266.2L336.8 295.4L337.7 295.4C346.6 278.6 368.3 260.9 400.6 260.9C467.8 260.9 480.3 305.2 480.3 362.8L480.3 480z"/>
  </symbol> 
  
<symbol id="x-icon" viewBox="0 0 640 640">
    <path d="M 160,95.999998 C 124.7,95.999998 96,124.7 96,160 v 320 c 0,35.3 28.7,64 64,64 h 320 c 35.3,0 64,-28.7 64,-64 V 160 C 544,124.7 515.3,95.999998 480,95.999998 Z M 457.1,180 353.3,298.6 475.4,460 H 379.8 L 305,362.1 219.3,460 H 171.8 L 282.8,333.1 165.7,180 h 98 l 67.7,89.5 78.2,-89.5 z M 419.3,431.6 249.4,206.9 h -28.3 l 171.8,224.7 z"/>
  </symbol>
  
   <symbol id="share-icon" viewBox="0 0 640 640">
    <path d="M448 256C501 256 544 213 544 160C544 107 501 64 448 64C395 64 352 107 352 160C352 165.4 352.5 170.8 353.3 176L223.6 248.1C206.7 233.1 184.4 224 160 224C107 224 64 267 64 320C64 373 107 416 160 416C184.4 416 206.6 406.9 223.6 391.9L353.3 464C352.4 469.2 352 474.5 352 480C352 533 395 576 448 576C501 576 544 533 544 480C544 427 501 384 448 384C423.6 384 401.4 393.1 384.4 408.1L254.7 336C255.6 330.8 256 325.5 256 320C256 314.5 255.5 309.2 254.7 304L384.4 231.9C401.3 246.9 423.6 256 448 256z"/>
  </symbol>

  <symbol id="readtime-icon" viewBox="0 0 640 640">
    <path d="M160 64C142.3 64 128 78.3 128 96C128 113.7 142.3 128 160 128L160 139C160 181.4 176.9 222.1 206.9 252.1L274.8 320L206.9 387.9C176.9 417.9 160 458.6 160 501L160 512C142.3 512 128 526.3 128 544C128 561.7 142.3 576 160 576L480 576C497.7 576 512 561.7 512 544C512 526.3 497.7 512 480 512L480 501C480 458.6 463.1 417.9 433.1 387.9L365.2 320L433.1 252.1C463.1 222.1 480 181.4 480 139L480 128C497.7 128 512 113.7 512 96C512 78.3 497.7 64 480 64L160 64zM416 501L416 512L224 512L224 501C224 475.5 234.1 451.1 252.1 433.1L320 365.2L387.9 433.1C405.9 451.1 416 475.5 416 501z"/>
  </symbol>

  <symbol id="tags-icon" viewBox="0 0 640 640">
    <path d="M433.2 103.1L581.4 253.4C609.1 281.5 609.1 326.5 581.4 354.6L425 512.9C415.7 522.3 400.5 522.4 391.1 513.1C381.7 503.8 381.6 488.6 390.9 479.2L547.3 320.8C556.5 311.5 556.5 296.4 547.3 287.1L399 136.9C389.7 127.5 389.8 112.3 399.2 103C408.6 93.7 423.8 93.8 433.1 103.2zM64.1 293.5L64.1 160C64.1 124.7 92.8 96 128.1 96L261.6 96C278.6 96 294.9 102.7 306.9 114.7L450.9 258.7C475.9 283.7 475.9 324.2 450.9 349.2L317.4 482.7C292.4 507.7 251.9 507.7 226.9 482.7L82.9 338.7C70.9 326.7 64.2 310.4 64.2 293.4zM208.1 208C208.1 190.3 193.8 176 176.1 176C158.4 176 144.1 190.3 144.1 208C144.1 225.7 158.4 240 176.1 240C193.8 240 208.1 225.7 208.1 208z"/>
  </symbol>
  
</svg>



